<svg width="32" height="32" viewBox="0 0 32 32" fill="none" xmlns="http://www.w3.org/2000/svg">
<path d="M20.14 29.7674H11.86C4.027 29.7674 2 27.7644 2 20.0239V11.8417C2 4.1012 4.027 2.09814 11.86 2.09814H20.139C27.973 2.09814 30 4.1012 30 11.8417V20.0239C30 27.7644 27.973 29.7674 20.14 29.7674ZM11.86 3.08633C4.573 3.08633 3 4.64075 3 11.8417V20.0239C3 27.2248 4.573 28.7792 11.86 28.7792H20.139C27.426 28.7792 28.999 27.2248 28.999 20.0239V11.8417C29 4.64075 27.427 3.08633 20.14 3.08633H11.86Z" fill="white"/>
<path d="M25.2184 22.7276H23.0304C22.2204 22.7276 21.8144 22.28 21.1394 21.5388C20.8734 21.2473 20.5474 20.8886 20.1144 20.4597C18.9204 19.3223 18.4144 19.2077 18.2284 19.2077C18.2214 19.2561 18.2154 19.3332 18.2154 19.4538V21.3926C18.2154 22.5003 17.3914 22.7276 16.1524 22.7276C13.5564 22.7276 10.9084 21.1693 9.06839 18.5595C6.41839 14.8883 5.52539 11.904 5.52539 11.1065C5.52539 10.4039 5.98139 10.0007 6.77539 10.0007H8.96339C9.92339 10.0007 10.2164 10.6065 10.4154 11.1737C11.4004 14.0108 12.8524 16.1246 13.4564 16.5465C13.4614 16.4823 13.4654 16.3973 13.4654 16.2827V13.0987C13.4244 12.3783 13.1824 12.0819 12.9684 11.821C12.7934 11.6075 12.5954 11.3654 12.5954 10.9919C12.5954 10.5156 12.9994 10.0007 13.6524 10.0007H17.0904C17.6044 10.0007 18.2154 10.2241 18.2154 11.2893V15.5731C18.2154 15.5929 18.2164 15.6107 18.2174 15.6275C18.3304 15.5504 18.4914 15.4051 18.7224 15.1779C20.2014 13.5424 21.2914 10.9445 21.3024 10.9178C21.5634 10.315 22.0514 9.99976 22.7174 9.99976H24.9054C25.3784 9.99976 25.7234 10.1401 25.9304 10.4148C26.0684 10.5976 26.2004 10.9227 26.0464 11.4307C25.7644 12.7143 23.3094 16.1572 23.0294 16.5455C23.0084 16.5801 22.9234 16.7165 22.9124 16.7629C22.9154 16.7629 22.9334 16.8113 23.0164 16.9181C23.1174 17.0554 23.3664 17.2965 23.6074 17.5307C23.9054 17.8193 24.2424 18.1464 24.5104 18.4596C25.6904 19.771 26.2534 20.5566 26.4504 21.1614C26.6144 21.7207 26.4694 22.0725 26.3174 22.2711C26.1624 22.4806 25.8444 22.7276 25.2184 22.7276ZM18.2884 18.2185C18.7404 18.2185 19.3944 18.4013 20.8144 19.7542C21.2704 20.2048 21.6084 20.5754 21.8834 20.8777C22.5374 21.5981 22.6964 21.7394 23.0294 21.7394H25.2174C25.4244 21.7394 25.5084 21.693 25.5194 21.6802C25.5194 21.6802 25.5444 21.6199 25.4954 21.4529C25.3114 20.8876 24.4694 19.9024 23.7564 19.1089C23.4994 18.8085 23.1864 18.5061 22.9084 18.2383C22.5994 17.9399 22.3564 17.7037 22.2174 17.512C21.7194 16.8785 21.9144 16.4526 22.1994 16C22.9404 14.9664 24.8684 12.1372 25.0794 11.1856C25.1084 11.0848 25.1154 11.0294 25.1154 11.0028C25.0974 11.0047 25.0304 10.9899 24.9054 10.9899H22.7174C22.4184 10.9899 22.3104 11.1046 22.2254 11.3012C22.1814 11.4069 21.0634 14.0741 19.4494 15.8577C18.9354 16.3667 18.5724 16.6868 18.0564 16.6868C17.6514 16.6868 17.2154 16.338 17.2154 15.5741V11.2903C17.2154 11.1006 17.1924 11.0206 17.1814 10.9929C17.1704 10.9968 17.1434 10.9909 17.0904 10.9899H13.6524C13.6034 11.0275 13.6894 11.1322 13.7464 11.2014C14.0094 11.5226 14.4054 12.0078 14.4654 13.073L14.4664 16.2846C14.4664 16.6789 14.4664 17.6039 13.5604 17.6039C12.2774 17.6039 10.3614 14.0573 9.47139 11.4979C9.29339 10.9909 9.21039 10.9909 8.96439 10.9909H6.77639C6.58039 10.9909 6.52339 11.0285 6.52239 11.0285C6.52639 11.4544 7.14639 14.1946 9.88639 17.9912C11.5424 20.3402 13.8834 21.7404 16.1534 21.7404C17.2164 21.7404 17.2164 21.5952 17.2164 21.3936V19.4547C17.2164 18.8431 17.3434 18.2185 18.2884 18.2185Z" fill="white"/>
</svg>
