<svg width="36" height="36" viewBox="0 0 36 36" fill="none" xmlns="http://www.w3.org/2000/svg">
<path d="M25.0312 5.14833C26.5972 5.14981 28.0986 5.76519 29.206 6.85943C30.3133 7.95366 30.936 9.43734 30.9375 10.9848V24.8812C30.936 26.4287 30.3133 27.9124 29.206 29.0066C28.0986 30.1009 26.5972 30.7163 25.0312 30.7177H10.9688C9.40277 30.7163 7.90136 30.1009 6.79405 29.0066C5.68673 27.9124 5.06399 26.4287 5.0625 24.8812V10.9848C5.06399 9.43734 5.68673 7.95366 6.79405 6.85943C7.90136 5.76519 9.40277 5.14981 10.9688 5.14833H25.0312ZM25.0312 4.03662H10.9688C9.10395 4.03662 7.31552 4.76866 5.99691 6.0717C4.67829 7.37474 3.9375 9.14205 3.9375 10.9848V24.8812C3.9375 25.7937 4.11937 26.6972 4.47272 27.5402C4.82608 28.3832 5.34399 29.1492 5.99691 29.7944C7.31552 31.0974 9.10395 31.8294 10.9688 31.8294H25.0312C25.9546 31.8294 26.8689 31.6497 27.722 31.3005C28.5751 30.9514 29.3502 30.4396 30.0031 29.7944C30.656 29.1492 31.1739 28.3832 31.5273 27.5402C31.8806 26.6972 32.0625 25.7937 32.0625 24.8812V10.9848C32.0625 10.0724 31.8806 9.16886 31.5273 8.32586C31.1739 7.48287 30.656 6.7169 30.0031 6.0717C29.3502 5.4265 28.5751 4.9147 27.722 4.56552C26.8689 4.21634 25.9546 4.03662 25.0312 4.03662Z" fill="white"/>
<path d="M18 12.3744C19.1125 12.3744 20.2001 12.7004 21.1251 13.3112C22.0501 13.922 22.7711 14.7901 23.1968 15.8058C23.6226 16.8215 23.734 17.9391 23.5169 19.0174C23.2999 20.0956 22.7641 21.0861 21.9775 21.8635C21.1908 22.6408 20.1885 23.1703 19.0974 23.3847C18.0062 23.5992 16.8752 23.4891 15.8474 23.0684C14.8196 22.6477 13.9411 21.9352 13.323 21.0211C12.7049 20.107 12.375 19.0324 12.375 17.933C12.375 16.4587 12.9676 15.0449 14.0225 14.0025C15.0774 12.96 16.5082 12.3744 18 12.3744ZM18 11.2627C16.665 11.2627 15.3599 11.6539 14.2499 12.3868C13.1399 13.1198 12.2747 14.1615 11.7638 15.3804C11.2529 16.5992 11.1193 17.9404 11.3797 19.2343C11.6402 20.5282 12.283 21.7167 13.227 22.6496C14.171 23.5824 15.3738 24.2177 16.6831 24.4751C17.9925 24.7325 19.3497 24.6004 20.5831 24.0955C21.8165 23.5906 22.8707 22.7357 23.6124 21.6388C24.3541 20.5419 24.75 19.2522 24.75 17.933C24.75 16.1639 24.0388 14.4673 22.773 13.2164C21.5071 11.9655 19.7902 11.2627 18 11.2627Z" fill="white"/>
<path d="M25.875 8.48354C26.0975 8.48354 26.315 8.54874 26.5 8.6709C26.685 8.79305 26.8292 8.96668 26.9144 9.16982C26.9995 9.37296 27.0218 9.59648 26.9784 9.81214C26.935 10.0278 26.8278 10.2259 26.6705 10.3814C26.5132 10.5368 26.3127 10.6427 26.0945 10.6856C25.8763 10.7285 25.6501 10.7065 25.4445 10.6223C25.2389 10.5382 25.0632 10.3957 24.9396 10.2129C24.816 10.0301 24.75 9.81513 24.75 9.59525C24.75 9.30041 24.8685 9.01764 25.0795 8.80915C25.2905 8.60067 25.5766 8.48354 25.875 8.48354ZM25.875 7.37183C25.43 7.37183 24.995 7.50223 24.625 7.74654C24.255 7.99085 23.9666 8.33811 23.7963 8.74438C23.626 9.15066 23.5814 9.59772 23.6682 10.029C23.7551 10.4603 23.9693 10.8565 24.284 11.1674C24.5987 11.4784 24.9996 11.6902 25.436 11.776C25.8725 11.8617 26.3249 11.8177 26.736 11.6494C27.1472 11.4811 27.4986 11.1962 27.7458 10.8305C27.993 10.4649 28.125 10.035 28.125 9.59525C28.125 9.00556 27.8879 8.44003 27.466 8.02305C27.044 7.60608 26.4717 7.37183 25.875 7.37183Z" fill="white"/>
</svg>
