<svg width="16" height="16" viewBox="0 0 16 16" fill="none" xmlns="http://www.w3.org/2000/svg">
<path d="M7.96562 15.8719C3.63437 15.8719 0.09375 12.3313 0.09375 8.00005C0.09375 3.6688 3.63437 0.128174 7.96562 0.128174C12.2969 0.128174 15.8375 3.6688 15.8375 8.00005C15.8719 12.3313 12.3312 15.8719 7.96562 15.8719ZM7.96562 0.953172C4.08125 0.953172 0.953125 4.11567 0.953125 7.96567C0.953125 11.8157 4.11562 14.9782 7.96562 14.9782C11.8156 14.9782 14.9781 11.8157 14.9781 7.96567C14.9781 4.11567 11.85 0.953172 7.96562 0.953172Z" fill="#36A0E7"/>
<path d="M10.4414 12.022L7.51953 9.1001V3.77197H8.44765V8.72197L11.0945 11.3688L10.4414 12.022Z" fill="#36A0E7"/>
</svg>
