<svg width="18" height="19" viewBox="0 0 18 19" fill="none" xmlns="http://www.w3.org/2000/svg">
<path d="M15.75 15.3823H2.25C1.47459 15.3823 0.84375 14.7589 0.84375 13.9926V4.95995C0.84375 4.19371 1.47459 3.57031 2.25 3.57031H15.75C16.5254 3.57031 17.1562 4.19371 17.1562 4.95995V13.9926C17.1562 14.7589 16.5254 15.3823 15.75 15.3823ZM2.25 4.12617C1.78467 4.12617 1.40625 4.50012 1.40625 4.95995V13.9926C1.40625 14.4524 1.78467 14.8264 2.25 14.8264H15.75C16.2153 14.8264 16.5938 14.4524 16.5938 13.9926V4.95995C16.5938 4.50012 16.2153 4.12617 15.75 4.12617H2.25Z" fill="white"/>
<path d="M9.00002 9.82916C8.83028 9.82916 8.66041 9.77816 8.51401 9.67616L1.12544 5.47874C0.990859 5.40218 0.944452 5.23236 1.0218 5.09923C1.09942 4.96624 1.27126 4.9208 1.40584 4.99682L8.83309 9.21841C8.93308 9.29081 9.06681 9.29081 9.1668 9.21841L9.19323 9.20131L16.5942 4.99682C16.7292 4.92066 16.9009 4.96624 16.9782 5.09923C17.0556 5.23236 17.0092 5.40231 16.8746 5.47874L9.48602 9.67616C9.33962 9.77816 9.16975 9.82916 9.00002 9.82916Z" fill="white"/>
</svg>
