<svg width="22" height="19" viewBox="0 0 22 19" fill="none" xmlns="http://www.w3.org/2000/svg">
<path d="M21.439 13.3847C20.8647 12.5904 19.3491 12.2399 18.4967 12.1016C16.9411 11.8492 14.9363 11.8684 13.9646 12.4802C13.6447 12.6818 13.4854 13.0982 13.4482 13.8306C13.4433 13.9271 13.4411 14.0213 13.4405 14.1106C11.7895 13.5753 10.2654 12.7767 8.96463 11.7651L8.3934 11.2883C7.18332 10.2039 6.22754 8.93344 5.58659 7.55746C5.69375 7.55701 5.8069 7.55519 5.9228 7.55111C6.79831 7.52007 7.29618 7.38731 7.53711 7.1207C8.2669 6.31315 8.29332 4.64572 7.99579 3.35148C7.83084 2.63375 7.41108 1.35777 6.45389 0.875513C5.50163 0.395716 4.02981 0.511459 3.44118 0.583572C2.22682 0.732174 1.21655 1.09239 0.738598 1.547C0.322114 1.94323 0.175806 3.07395 0.13227 3.54165C0.131099 3.55395 0.130688 3.56659 0.130923 3.57894C0.202583 7.38854 1.94821 11.0264 5.04612 13.8209C5.05028 13.8246 5.0545 13.8298 5.05877 13.8334L5.92725 14.5615C5.93153 14.5651 5.93586 14.5748 5.94037 14.5782C9.28743 17.1637 13.643 18.5943 18.205 18.6927C18.2074 18.6927 18.2099 18.6927 18.2123 18.6927C18.2244 18.6927 18.2364 18.68 18.2485 18.6793C18.8081 18.6429 20.1608 18.5086 20.6345 18.1617C21.1796 17.7624 21.6113 16.9183 21.7896 15.9035C21.8759 15.4114 22.0147 14.1811 21.439 13.3847ZM20.8621 15.7886C20.722 16.5861 20.3829 17.3014 20.0186 17.5683C19.8553 17.6813 19.0079 17.8264 18.1977 17.8808C13.8771 17.8197 9.75301 16.4391 6.58186 13.9918L5.72639 13.2776C2.79541 10.631 1.14208 7.18971 1.06883 3.58425C1.13358 2.90961 1.3069 2.20374 1.44172 2.06758C1.76217 1.7628 2.6201 1.47937 3.57665 1.3623C4.57995 1.23947 5.49776 1.31148 5.97166 1.5503C6.42893 1.7807 6.85192 2.528 7.07551 3.50063C7.36895 4.7771 7.25024 6.1187 6.8003 6.63402C6.6186 6.74115 5.79477 6.79856 5.02204 6.75975C4.93813 6.74199 4.84748 6.74317 4.7593 6.76786C4.68231 6.78946 4.61645 6.82625 4.56477 6.87288C4.4903 6.93708 4.44131 7.02276 4.43299 7.11918C4.42584 7.20226 4.45016 7.28106 4.49721 7.34771C5.14526 8.93812 6.18196 10.4111 7.53037 11.6631C7.54631 11.6845 7.56495 11.7049 7.58627 11.724C7.7252 11.8483 7.86717 11.9703 8.01184 12.0897C8.1551 12.2107 8.30135 12.3294 8.45071 12.4456C8.47362 12.4634 8.49805 12.4789 8.5236 12.4922C10.023 13.6173 11.7869 14.4826 13.6912 15.0234C13.7705 15.0627 13.8642 15.0831 13.9632 15.0768C14.0788 15.0698 14.1814 15.0279 14.2579 14.9646C14.2658 14.9584 14.2728 14.9516 14.2802 14.9449C14.2822 14.943 14.2842 14.9411 14.2863 14.9391C14.3276 14.9002 14.3613 14.8545 14.382 14.8018C14.4112 14.7279 14.4123 14.6521 14.391 14.5818C14.3449 13.9385 14.4131 13.253 14.5408 13.1016C15.1631 12.7228 16.7808 12.6248 18.3191 12.8744C19.4751 13.0619 20.3636 13.414 20.6377 13.7932C20.923 14.1878 21.0089 14.9524 20.8621 15.7886Z" fill="white"/>
</svg>
